<?xml version="1.0" encoding="UTF-8"?><svg height="670" viewBox="0 0 800 670" width="800" xmlns="http://www.w3.org/2000/svg"><path d="m610.02 195.19h39.99v102.83h-39.99z" fill="#bfddf7" fill-rule="evenodd"/><path d="m641.44 272.31a11.43 11.43 0 1 1 -11.44-11.42 11.43 11.43 0 0 1 11.43 11.42" fill="#d0e4f7" fill-rule="evenodd"/><path d="m758.55 212.33a11.43 11.43 0 0 0 -11.43-11.43h-44.56l2.82-13.19c2.15-10.06 1.57-22.33.3-31s-9-18.69-17.08-18.69h-.68c-6.88 0-9.35 7.59-9.35 17.13 0 46.42-22.85 45.7-22.85 45.7h-5.72v91.4h82.83a11.43 11.43 0 0 0 0-22.85h8.57a11.43 11.43 0 0 0 0-22.85h8.6a11.42 11.42 0 0 0 11.42-11.42c0-7.12-4.61-9.83-11.42-10.84a99.89 99.89 0 0 0 -11.43-.59h8.57a11.42 11.42 0 0 0 11.43-11.42" fill="#e5f2fb" fill-rule="evenodd"/><path d="m744.49 223.89c-2.77.21-5.54.3-8.31.38s-5.55.11-8.32.12-5.54 0-8.31-.12l-4.16-.14c-1.39-.08-2.77-.13-4.16-.24 1.39-.11 2.77-.16 4.16-.25l4.16-.14c2.77-.09 5.54-.1 8.31-.11s5.55 0 8.32.12 5.54.17 8.31.38z" fill="#99c9f1"/><path d="m741.41 246.6c-2.52.21-5 .31-7.55.39s-5 .1-7.54.11-5 0-7.54-.11l-3.78-.14c-1.25-.08-2.51-.13-3.77-.25 1.26-.11 2.52-.16 3.77-.24l3.78-.14c2.51-.09 5-.1 7.54-.12s5 0 7.54.12 5.03.18 7.55.38z" fill="#99c9f1"/><path d="m732.84 269.45c-2.26.21-4.52.31-6.78.39s-4.53.1-6.79.11-4.52 0-6.78-.11l-3.39-.14c-1.13-.08-2.27-.13-3.4-.25 1.13-.11 2.27-.16 3.4-.24l3.39-.14c2.26-.09 4.52-.1 6.78-.12s4.52 0 6.79.12 4.52.18 6.78.38z" fill="#99c9f1"/><path d="m76.87 398.64v-11.12q0-14.43 6.16-25.09t22.53-22.69q15.78-11.26 20.81-18.33a26.54 26.54 0 0 0 5-15.78q0-9.76-7.21-14.87t-20.14-5.11q-22.53 0-51.38 14.72l-16.34-32.9a143.18 143.18 0 0 1 71.07-18.78q30.94 0 49.21 14.87t18.25 39.67q0 16.53-7.51 28.55t-28.55 27q-14.43 10.67-18.26 16.23t-3.83 14.57v9zm-4.81 51.36q0-12.63 6.76-19.09t19.68-6.46q12.48 0 19.31 6.61t6.84 18.94q0 11.87-6.92 18.7t-19.23 6.87q-12.61 0-19.53-6.69t-6.91-18.88z" fill="#e5f2fb"/><path d="m296.68 54.17 8.78 18.71 19.64 3-14.21 14.56 3.36 20.57-17.57-9.71-17.56 9.71 3.35-20.57-14.21-14.56 19.64-3z" fill="#99c9f1" fill-rule="evenodd"/><path d="m363 54.17 8.79 18.71 19.64 3-14.22 14.56 3.36 20.57-17.57-9.71-17.56 9.71 3.35-20.57-14.21-14.56 19.64-3z" fill="#bfddf7" fill-rule="evenodd"/><path d="m429.32 54.17 8.79 18.71 19.64 3-14.21 14.56 3.35 20.57-17.57-9.71-17.56 9.71 3.36-20.57-14.22-14.56 19.64-3z" fill="#e5f2fb" fill-rule="evenodd"/><path d="m616.37 144.28h-67.92v32a16 16 0 0 1 -16 16h-159.79a16 16 0 0 1 -16-16v-32h-67.9a12 12 0 0 0 -12 12v383.53a12 12 0 0 0 12 12h327.61a12 12 0 0 0 12-12v-383.54a12 12 0 0 0 -12-12" fill="#4d95e2" fill-rule="evenodd"/><path d="m606.85 532.33v-368.58h-51.43-205.72-51.43v368.58" fill="#fff" fill-rule="evenodd"/><path d="m511.62 128.3c-9.94 0-18.38-6.39-22.24-15.55a40 40 0 0 0 -73.63 0c-3.87 9.16-12.31 15.55-22.25 15.55h-20.85a16 16 0 0 0 -16 16v32a16 16 0 0 0 16 16h159.81a16 16 0 0 0 16-16v-32a16 16 0 0 0 -16-16z" fill="#99c9f1" fill-rule="evenodd"/><path d="m468.54 136.29a16 16 0 1 0 -16 16 16 16 0 0 0 16-16" fill="#fff" fill-rule="evenodd"/><path d="m450.27 230.23h12.87 2.42 12.87 2.42 12.87 2.41 5.23 2.41 5.23 2.42 61.15v-9.34h-61.15-2.42-5.23-2.41-5.23-2.41-12.87-2.42-12.87-2.42-12.87-2.41-7.65v9.34h7.65z" fill="#efefef"/><path d="m557.28 240.88h-2.41-12.88-2.41-12.87-2.42-12.87-2.42-5.22-2.42-12.87-2.42-5.22-2.42-12.87-2.42-12.87-2.41-7.65v9.34h7.65 2.41 12.87 2.42 12.87 2.42 5.22 2.42 12.87 2.42 5.22 2.42 12.87 2.42 12.87 2.41 12.88 2.41 15.29v-9.34z" fill="#efefef"/><path d="m440.21 260.87h49.38v9.33h-49.38z" fill="#efefef"/><path d="m450.27 317.11h12.87 2.42 12.87 2.42 12.87 2.41 5.23 2.41 5.23 2.42 61.15v-9.33h-61.15-2.42-5.23-2.41-5.23-2.41-12.87-2.42-12.87-2.42-12.87-2.41-7.65v9.33h7.65z" fill="#efefef"/><path d="m557.28 327.77h-2.41-12.88-2.41-12.87-2.42-12.87-2.42-5.22-2.42-12.87-2.42-5.22-2.42-12.87-2.42-12.87-2.41-7.65v9.33h7.65 2.41 12.87 2.42 12.87 2.42 5.22 2.42 12.87 2.42 5.22 2.42 12.87 2.42 12.87 2.41 12.88 2.41 15.29v-9.33z" fill="#efefef"/><path d="m440.21 347.76h49.38v9.33h-49.38z" fill="#efefef"/><path d="m450.27 403.99h12.87 2.42 12.87 2.42 12.87 2.41 5.23 2.41 5.23 2.42 61.15v-9.33h-61.15-2.42-5.23-2.41-5.23-2.41-12.87-2.42-12.87-2.42-12.87-2.41-7.65v9.33h7.65z" fill="#efefef"/><path d="m557.28 414.65h-2.41-12.88-2.41-12.87-2.42-12.87-2.42-5.22-2.42-12.87-2.42-5.22-2.42-12.87-2.42-12.87-2.41-7.65v9.33h7.65 2.41 12.87 2.42 12.87 2.42 5.22 2.42 12.87 2.42 5.22 2.42 12.87 2.42 12.87 2.41 12.88 2.41 15.29v-9.33z" fill="#efefef"/><path d="m440.21 434.64h49.38v9.33h-49.38z" fill="#efefef"/><path d="m388.85 173.03h127.41" fill="none" stroke="#76b4ea" stroke-linecap="round" stroke-miterlimit="10" stroke-width="6.44"/><circle cx="367" cy="437.86" fill="#efefef" r="36.05"/><path d="m345.89 438.38 12.32 13.39 29.91-27.81" fill="none" stroke="#fafbff" stroke-miterlimit="10" stroke-width="9.14"/><circle cx="367" cy="350.98" fill="none" r="36.05" stroke="#efefef" stroke-miterlimit="10" stroke-width="3.22"/><circle cx="367" cy="264.09" fill="#efefef" r="36.05"/><path d="m345.89 264.61 12.32 13.39 29.91-27.81" fill="none" stroke="#fafbff" stroke-miterlimit="10" stroke-width="9.14"/><path d="m737.2 597.1q-51-1.17-102.08-1.6-24.58-.19-49.16-.22c-14 0-27.68.07-40.31 5.15-2.81 1.13-2.83 3.57-1.25 5.14.46 1.27 1.88 2.33 4.38 2.42l1.91.08c.64 1.44 2.19 2.28 4.44 2.5 17.72 1.72 35.5 1.78 53.28 1.3a493.52 493.52 0 0 0 84-.88 5.45 5.45 0 0 0 .84.14 106.41 106.41 0 0 0 44.43-5.38 3.16 3.16 0 0 0 2.38-2.2c3-1.7 2.05-6.34-2.86-6.45z" fill="#eee"/><path d="m704.78 600.87h-123.09a14 14 0 0 1 -14-14v-245.81a14 14 0 0 1 14-14h123.09a14 14 0 0 1 14 14v245.82a14 14 0 0 1 -14 14" fill="#545c66" fill-rule="evenodd"/><path d="m571.87 563.1h142.73v-207.7h-142.73z" fill="#fff" fill-rule="evenodd"/><path d="m658.08 345.06h-19.08a3.82 3.82 0 0 1 0-7.64h19.12a3.82 3.82 0 0 1 0 7.64" fill="#444951" fill-rule="evenodd"/><path d="m627.49 345.06h-3.82a3.82 3.82 0 1 1 0-7.64h3.82a3.82 3.82 0 1 1 0 7.64" fill="#444951" fill-rule="evenodd"/><path d="m651.6 582a8.37 8.37 0 1 1 -8.37-8.36 8.37 8.37 0 0 1 8.37 8.36" fill="#444951" fill-rule="evenodd"/><g fill="#efefef"><path d="m593.98 441.6h11.2 2.1 11.21 2.1 11.21 2.1 4.55 2.1 4.55 2.1 53.23v-4.19h-53.23-2.1-4.55-2.1-4.55-2.1-11.21-2.1-11.21-2.1-11.2-2.1-6.66v4.19h6.66z"/><path d="m593.98 433.46h11.2 2.1 11.21 2.1 11.21 2.1 4.55 2.1 4.55 2.1 53.23v-4.19h-53.23-2.1-4.55-2.1-4.55-2.1-11.21-2.1-11.21-2.1-11.2-2.1-6.66v4.19h6.66z"/><path d="m593.98 425.32h11.2 2.1 11.21 2.1 11.21 2.1 4.55 2.1 4.55 2.1 53.23v-4.19h-53.23-2.1-4.55-2.1-4.55-2.1-11.21-2.1-11.21-2.1-11.2-2.1-6.66v4.19h6.66z"/><path d="m593.98 400.91h11.2 2.1 11.21 2.1 11.21 2.1 4.55 2.1 4.55 2.1 53.23v-4.19h-53.23-2.1-4.55-2.1-4.55-2.1-11.21-2.1-11.21-2.1-11.2-2.1-6.66v4.19h6.66z"/><path d="m593.98 392.77h11.2 2.1 11.21 2.1 11.21 2.1 4.55 2.1 4.55 2.1 53.23v-4.19h-53.23-2.1-4.55-2.1-4.55-2.1-11.21-2.1-11.21-2.1-11.2-2.1-6.66v4.19h6.66z"/><path d="m687.12 445.55h-2.1-11.2-2.1-11.21-2.1-11.21-2.1-4.55-2.1-11.21-2.1-4.55-2.1-11.21-2.1-11.2-2.1-6.66v4.18h6.66 2.1 11.2 2.1 11.21 2.1 4.55 2.1 11.21 2.1 4.55 2.1 11.21 2.1 11.21 2.1 11.2 2.1 13.31v-4.18z"/><path d="m585.22 453.68h42.99v4.19h-42.99z"/><path d="m585.22 404.86h42.99v4.19h-42.99z"/><path d="m590.26 484.23h6.46 1.21 6.46 1.21 6.45 1.22 2.62 1.21 2.62 1.21 30.67v-4.18h-30.67-1.21-2.62-1.21-2.62-1.22-6.45-1.21-6.46-1.21-6.46-1.2-3.84v4.18h3.84z"/><path d="m590.26 476.1h6.46 1.21 6.46 1.21 6.45 1.22 2.62 1.21 2.62 1.21 30.67v-4.19h-30.67-1.21-2.62-1.21-2.62-1.22-6.45-1.21-6.46-1.21-6.46-1.2-3.84v4.19h3.84z"/><path d="m585.22 488.18h42.99v4.19h-42.99z"/></g><path d="m619.08 539.55h50.7" fill="none" stroke="#efefef" stroke-linecap="round" stroke-miterlimit="10" stroke-width="20.83"/><path d="m618.62 467.72a41.71 41.71 0 1 1 -41.7-41.72 41.7 41.7 0 0 1 41.7 41.71" fill="#4d95e2" fill-rule="evenodd"/><path d="m568 452.82a7 7 0 1 1 -7-6.95 6.95 6.95 0 0 1 7 6.95" fill="#3965af" fill-rule="evenodd"/><path d="m599.76 452.82a7 7 0 1 1 -7-6.95 7 7 0 0 1 7 6.95" fill="#3965af" fill-rule="evenodd"/><path d="m555.07 493.53a21.85 21.85 0 0 1 43.69 0" fill="none" stroke="#3965af" stroke-linecap="round" stroke-width="3.97"/><path d="m756.47 409.05a41.88 41.88 0 1 1 -41.87-41.88 41.88 41.88 0 0 1 41.87 41.88" fill="#3965af" fill-rule="evenodd"/><path d="m706.62 394.09a7 7 0 1 1 -7-7 7 7 0 0 1 7 7" fill="#4d95e2" fill-rule="evenodd"/><path d="m738.52 394.09a7 7 0 1 1 -7-7 7 7 0 0 1 7 7" fill="#4d95e2" fill-rule="evenodd"/><path d="m736.53 415a21.94 21.94 0 0 1 -43.87 0z" fill="#4d95e2" fill-rule="evenodd"/><path d="m150.83 250s13.33-15.8 50.53 8.57a108 108 0 0 0 15.64 8.43c15.7 7 44.93 17.29 70.3 11.68l3.5 14.41s-23.71 12.19-53.2 4-49.73-9.76-73.24-27.28c-.02.06-14.08-7.65-13.53-19.81z" fill="#36b5a0"/><path d="m106.38 596.84q-18.59-.74-37.16-1-9-.12-17.9-.14c-5.1 0-10.08 0-14.68 3.22a2.48 2.48 0 0 0 -.45 3.22 1.75 1.75 0 0 0 1.59 1.52h.7a1.93 1.93 0 0 0 1.61 1.56 91.38 91.38 0 0 0 19.4.82 105.1 105.1 0 0 0 30.57-.55 1.58 1.58 0 0 0 .31.09 24 24 0 0 0 16.17-3.37 1.77 1.77 0 0 0 .87-1.37c1.1-1.03.76-3.93-1.03-4z" fill="#f9f9f9"/><path d="m152.56 596.84q13.56-.74 27.14-1 6.54-.12 13.07-.14c3.72 0 7.36 0 10.72 3.22a3.17 3.17 0 0 1 .33 3.22c-.12.79-.5 1.46-1.16 1.52h-.51c-.17.9-.59 1.43-1.18 1.56a49 49 0 0 1 -14.17.82 56.37 56.37 0 0 1 -22.33-.55.85.85 0 0 1 -.22.09c-4.11.87-8.06-.35-11.81-3.37a1.9 1.9 0 0 1 -.64-1.37c-.8-1.03-.55-3.93.76-4z" fill="#f9f9f9"/><path d="m168.77 148.84s51.83-28 23.73 82.22a13.56 13.56 0 0 0 .77 9.22 10.25 10.25 0 0 0 7.71 6s-12.65 10.64-24.93-3.11-30.73-87.05-7.28-94.33z" fill="#f4c233"/><path d="m183.22 148.23s12.81 3.77 5.87 46.2c-1 6.2-2.38 12.32-4 18.4-2.31 8.9-6.38 29.56 2.94 37.23a141.44 141.44 0 0 1 -13.49-6.3c-5.56-3.11-15.92-46.74-6.13-73.53s14.81-22 14.81-22z" fill="#f3ac2d"/><path d="m327.68 594q-19.6-.74-39.22-1-9.45-.13-18.9-.14c-5.38 0-10.63 0-15.49 3.22a2.39 2.39 0 0 0 -.48 3.22 1.81 1.81 0 0 0 1.69 1.51h.73a2 2 0 0 0 1.71 1.56 100.92 100.92 0 0 0 20.47.81 117 117 0 0 0 32.27-.54 3 3 0 0 0 .32.09 26.52 26.52 0 0 0 17.08-3.37 1.77 1.77 0 0 0 .91-1.38c1.16-.98.8-3.9-1.09-3.98z" fill="#f9f9f9"/><path d="m278.43 567.59a34.11 34.11 0 0 1 -3.32 10.41c-.33.72 3.51 1.39 4 2 2.33 2.86 4.29 1 7.59-.62 1.22-.62.83-2.26 2.2-2.3.39 0 .22-2.5.11-2.87a2.29 2.29 0 0 0 -.68-.93c-2.8-2.84-3.74-7.3-3.78-11.28 0-.53-4.44-1.09-5-.52-1.02.99-1.01 5.32-1.12 6.11z" fill="#313438" fill-rule="evenodd"/><path d="m180.4 240.21c-1.11-1.72-1.6-6.5-2-8.61-.65-3.92-1.28-7.82-1.71-11.78-1-9.31-1.53-19 0-28.26l-14.95-2.4s8.33 34.91-6.6 44.6c0 0 4.57 4.25 14.41 9.11s20.31 22.13 27.45 18.3c-.08.01-15.74-19.62-16.6-20.96z" fill="#f39570"/><path d="m286.12 563.18-9.33-1.49a260.3 260.3 0 0 0 -.79-30.69c-.8-10.23-2-20.43-3.59-30.53s-3.45-20.12-5.81-29.75l-.91-3.58-.48-1.76-.06-.22a.43.43 0 0 0 -.05-.12l-.09-.23-.18-.45c-.47-1.09-.95-2.08-1.45-3a16.9 16.9 0 0 0 -1.62-2.46 5.35 5.35 0 0 0 -1-1 2.71 2.71 0 0 0 -1.47-.38 14.83 14.83 0 0 0 -4.27.53c-.65.17-1.25.34-1.81.54-.28.1-.56.2-.81.31h-.09a.57.57 0 0 1 -.18 0l-.62.07-1.25.16c-6.72.86-13.74 2.07-20.78 3.42s-14.15 2.88-21.25 4.51q-5.32 1.22-10.64 2.52l-5.28 1.42-2.62.67c-.85.23-1.77.46-2.49.67l-8.35-57.83c1.14-.05 2.07-.07 3.08-.1l3-.07 5.88-.1c3.91-.05 7.81-.07 11.72-.07 7.82 0 15.66.14 23.57.43s15.9.74 24.19 1.58l1.56.17.79.09h.52l.61.05c1.62.12 3.21.31 4.8.5 3.19.32 6.29.86 9.32 1.47 1.49.36 3 .65 4.44 1.08s2.87.86 4.22 1.41a45.84 45.84 0 0 1 7.64 3.92 20.63 20.63 0 0 1 4.38 4 28 28 0 0 1 3 5.07 49.33 49.33 0 0 1 3.59 11.61 122.39 122.39 0 0 1 1.64 12.25l.12 1.48.06.74v.36.26l.08 2.11.09 4.18c.14 11.08-.31 21.86-1.1 32.61s-1.94 21.41-3.53 32a273.77 273.77 0 0 1 -6.4 31.64z" fill="#9ea6af"/><path d="m84.54 575.93 2.46-9.11c15.1 2.55 30.39 4.74 45.53 6.37 7.57.79 15.13 1.47 22.55 1.8.92 0 1.85.09 2.77.11h1.81c1.17 0 2.31-.1 3.42-.19a36.51 36.51 0 0 0 6.25-1 12.37 12.37 0 0 0 2.74-1 4.26 4.26 0 0 0 1.49-2.71 25.24 25.24 0 0 0 .36-6.26 54.52 54.52 0 0 0 -.56-5.62l-.09-.79-.08-1.27-.19-2.67-.43-5.4c-1.33-14.5-3.45-29.3-5.81-44.07s-5.07-29.59-7.92-44.38q-2.15-11.09-4.43-22.15l-2.31-11.05c-.77-3.65-1.57-7.39-2.37-10.89l57.94-7.56c.18 4.05.3 7.85.43 11.75l.33 11.62q.3 11.61.45 23.21c.2 15.48.23 31 0 46.54s-.84 31.18-2.22 47.11c-.18 2-.37 4-.59 6l-.74 6.67a113.8 113.8 0 0 1 -2.9 16.88 42.35 42.35 0 0 1 -6.37 14.13 21.62 21.62 0 0 1 -2.49 2.86 11.84 11.84 0 0 1 -3.17 2.22 26 26 0 0 1 -3.57 1.24l-1.83.48-1.88.33a66.16 66.16 0 0 1 -16.09-.06c-2.7-.27-5.4-.72-8.05-1.13l-2-.36-1.94-.36c-1-.21-2-.44-3-.66-7.86-1.77-15.46-3.86-23-6.05-15.04-4.41-29.79-9.29-44.5-14.58z" fill="#d6d8d9"/><circle cx="173.55" cy="426.04" fill="#d6d8d9" r="33.13"/><path d="m150.86 450.16s7.43 5.58 9.75 18l11-14.26-14.71-7.19z" fill="#d6d8d9"/><path d="m189.47 165.2c.86 7.46 8 30-.64 33.93a8.85 8.85 0 0 1 -3.14.6 28.15 28.15 0 0 1 -27.14-19.1 50.36 50.36 0 0 1 -2.42-14.63 16.74 16.74 0 0 1 16.27-17.18c9.21-.2 15.89 6.18 17.07 16.38z" fill="#ffc69e"/><path d="m140.43 419s30.42-59.39 27-71.09-42-56.56-27.7-98.34 41-1.57 51.94 6.47c9.79 7.21 29.08 27.28 22.1 47.22-2.48 7.1-6.86 19.59-8.53 26.91-3.57 15.57-5.65 23.95-2.35 44.46 2.52 15.66 5.43 23.17 5.43 46.89z" fill="#00876d"/><path d="m143.84 277.13c5.53 17.2 16.41 21.79 27.62 18.18s18.51-14 13-31.23-19.1-28.23-30.31-24.63-15.84 20.48-10.31 37.68z" fill="#ffc69e"/><path d="m139.38 279.41a58.77 58.77 0 0 0 5 10.45 29.21 29.21 0 0 0 7.62 8.48 21.61 21.61 0 0 0 10.43 4 25.57 25.57 0 0 0 11.15-1.41 27.77 27.77 0 0 0 9.77-5.6 23.19 23.19 0 0 0 6.29-9.29 28.64 28.64 0 0 0 1.6-11.28 53.27 53.27 0 0 0 -1.87-11.43 48.58 48.58 0 0 1 2.63 11.39 29.66 29.66 0 0 1 -1.24 11.71 23.54 23.54 0 0 1 -6.43 10 28.66 28.66 0 0 1 -10.25 6 26.85 26.85 0 0 1 -11.8 1.39 22.12 22.12 0 0 1 -11-4.49 29.94 29.94 0 0 1 -7.55-9 53.42 53.42 0 0 1 -4.35-10.92z" fill="#00a58c"/><path d="m140.43 418.96 67.94 2.52-.37-15.43-62.83 1.97z" fill="#313438"/><path d="m162.9 170.42c-2.54.93-3.62 4.4-2.4 7.75s4.68 4.94 6.8 4.36 2.62-3.71 1.41-7.06-3.26-5.99-5.81-5.05z" fill="#ffc69e"/><path d="m183.22 169.24a2 2 0 0 1 .46.84 2.07 2.07 0 0 1 .08.81 2.22 2.22 0 0 1 -.24.77 2.08 2.08 0 0 1 -.62.74 2 2 0 0 1 -.47-.85 2.19 2.19 0 0 1 -.07-.8 2.11 2.11 0 0 1 .86-1.51z" fill="#ec725b"/><path d="m187.11 167.36a25.73 25.73 0 0 1 1 3.59q.4 1.8.66 3.63c.17 1.22.28 2.45.35 3.68a24.61 24.61 0 0 1 0 3.74 24.48 24.48 0 0 1 -1.05-3.59c-.27-1.2-.49-2.41-.65-3.63s-.29-2.45-.35-3.68a23.38 23.38 0 0 1 .04-3.74z" fill="#ec725b"/><path d="m190.69 185.9a3.4 3.4 0 0 0 -2 .41 3 3 0 0 0 -.66.57 10.08 10.08 0 0 1 -.81.83 3.87 3.87 0 0 1 -2.47.91 3.09 3.09 0 0 1 -2.3-.9 6.55 6.55 0 0 0 2.13-.31 4.75 4.75 0 0 0 1.63-.89c.23-.18.48-.46.82-.73a2.93 2.93 0 0 1 1.26-.62 2.4 2.4 0 0 1 2.4.73z" fill="#ec725b"/><path d="m188.15 189.27a6.13 6.13 0 0 1 .56-.51.72.72 0 0 1 .36-.18.77.77 0 0 1 .39.08 5.23 5.23 0 0 1 .67.34 1 1 0 0 1 -.26.8.93.93 0 0 1 -.6.33 1 1 0 0 1 -1.12-.86z" fill="#ec725b"/><path d="m201 402.4a25.52 25.52 0 0 1 -.95-3.88c-.24-1.3-.39-2.61-.52-3.92s-.18-2.62-.17-3.94a26.91 26.91 0 0 1 .26-4 24.39 24.39 0 0 1 1 3.88c.24 1.3.39 2.61.52 3.92s.18 2.63.17 3.95a25.5 25.5 0 0 1 -.31 3.99z" fill="#00a58c"/><path d="m197 402.4c-1-1.95-1.77-3.95-2.53-6s-1.45-4.05-2.12-6.09-1.26-4.11-1.79-6.2-1-4.18-1.37-6.33c1 1.95 1.77 3.95 2.53 6s1.45 4.05 2.12 6.1 1.25 4.11 1.78 6.19a64.23 64.23 0 0 1 1.38 6.33z" fill="#00a58c"/><path d="m168.77 339.54a23 23 0 0 1 5.31 5.84 3.72 3.72 0 0 1 .56 2.23 2.57 2.57 0 0 1 -1.39 2.14 5.31 5.31 0 0 1 -1 .31.5.5 0 0 0 -.31.21 1.76 1.76 0 0 0 .14 1.24c.18.49.53 1.09.81 1.66l.88 1.74a9.68 9.68 0 0 1 1.22 3.95 3.47 3.47 0 0 1 -.61 2.18 3.66 3.66 0 0 1 -1.8 1.22 9.26 9.26 0 0 0 -1.75.7 1.92 1.92 0 0 0 -1 1.46 2 2 0 0 1 .77-1.8 8.73 8.73 0 0 1 1.71-1.06 2.38 2.38 0 0 0 1.51-2.62 9.72 9.72 0 0 0 -1.32-3.35l-.92-1.71c-.29-.59-.63-1.1-.92-1.82a5.13 5.13 0 0 1 -.27-1.14 2.36 2.36 0 0 1 .27-1.4 2 2 0 0 1 1.21-.9c.41-.11.7-.15.85-.21a1.2 1.2 0 0 0 .64-1 2.8 2.8 0 0 0 -.29-1.52 43.07 43.07 0 0 0 -4.3-6.35z" fill="#00a58c"/><circle cx="326.91" cy="314.47" fill="#3965af" r="65.67"/><path d="m288.44 315.41 22.44 24.39 54.49-50.66" fill="none" stroke="#fafbff" stroke-miterlimit="10" stroke-width="16.65"/><path d="m336.07 272.52c.31-.11.57-.27.82-.37a39.67 39.67 0 0 0 8.13-4.52 42.1 42.1 0 0 0 7.27-6.31 23.52 23.52 0 0 0 4.41-6.3c1-3.1-4.16-7.48-11.52-9.3s-13.74-1.71-14.52.63a24.09 24.09 0 0 0 -.19 6.22c.13 2.63.43 5.39.77 8.26s.59 5.5 1 8.51c0 .25 0 .54.07.86a2.7 2.7 0 0 0 1.45 1.86 2.48 2.48 0 0 0 2.31.46z" fill="#f4a180"/><path d="m347.07 246.5c-1.48 3.87-3 7.68-4.72 11.45-.83 1.88-1.72 3.75-2.65 5.59a34.56 34.56 0 0 1 -3.19 5.29 34 34 0 0 0 2.82-5.46q1.21-2.83 2.28-5.73c1.42-3.85 2.72-7.75 3.93-11.66z" fill="#ec725b"/><path d="m339.32 244.52a84.18 84.18 0 0 1 -1.15 10.48 43.6 43.6 0 0 1 -1.18 5.15 19.75 19.75 0 0 1 -2.05 4.85 19.27 19.27 0 0 0 1.81-4.92 42.58 42.58 0 0 0 .94-5.16 85 85 0 0 0 .64-10.45z" fill="#ec725b"/><path d="m353.51 249.33q-2.49 4.6-5.27 9c-.93 1.47-1.89 2.92-2.91 4.33a34.57 34.57 0 0 1 -3.32 4 33.11 33.11 0 0 0 3.11-4.16c.95-1.45 1.84-2.94 2.7-4.44 1.71-3 3.31-6.1 4.81-9.21z" fill="#ec725b"/><path d="m317 588a12.64 12.64 0 0 1 -5.3-1.43l-6.7-2.71s-9.49-6.51-10.05-7.16c-2.08-2.44-4.61-4.91-6.14-4.65-2.94.52-5.85 3.36-14.24 3.36v8.38a7.25 7.25 0 0 0 -.86 10.06h38.57a2 2 0 0 0 1.41-.58 2 2 0 0 1 .69-.45c1.37-.53 6.41-1.72 6.29-2.74-.15-1.19-1.14-2.17-3.65-2.1" fill="#4d95e2" fill-rule="evenodd"/><path d="m292.21 573.85c-1.3-1.17-2.53-2-3.43-1.8-2.94.52-5.85 3.36-14.24 3.36v4a25.82 25.82 0 0 0 3.35.22c6.67 0 12.33-2.41 14.32-5.75" fill="#16538c" fill-rule="evenodd"/><path d="m273.13 585.48c-1.1 1.76-2.05 4.76.55 8.37h5.66a6.67 6.67 0 0 0 -6.21-8.37" fill="#3965af" fill-rule="evenodd"/><path d="m320.64 590.08c.14 1-4.91 2.21-6.29 2.74a2.08 2.08 0 0 0 -.69.44 1.73 1.73 0 0 1 -.3.25 2 2 0 0 1 -1.11.34h-38.57c-1.14 1.47-.92 2.52-.41 3.2a2.64 2.64 0 0 0 2.11 1h33.15a25 25 0 0 0 10.81-2.46l.41-.19c1-.49.89-5.31.89-5.31" fill="#d7d8da" fill-rule="evenodd"/><path d="m293.81 589.66h-5a1.68 1.68 0 0 1 0-3.36h5a1.68 1.68 0 0 1 0 3.36" fill="#fff" fill-rule="evenodd"/><path d="m292.21 573.85c-2 3.34-7.65 5.75-14.32 5.75a25.82 25.82 0 0 1 -3.35-.22v3.08a26 26 0 0 0 5 .49c7.4 0 13.54-3 14.83-6.86z" fill="#3965af" fill-rule="evenodd"/><circle cx="296.66" cy="581.21" fill="#fff" r="1.15"/><circle cx="300.35" cy="583.72" fill="#fff" r="1.15"/><path d="m275.46 563.41 13.02-.66" fill="none" stroke="#bbbfc4" stroke-miterlimit="10" stroke-width="8.23"/><path d="m298.71 579.17-2.05 2.04" fill="none" stroke="#285680" stroke-linecap="round" stroke-linejoin="round" stroke-width="1.03"/><path d="m302.39 581.68-2.04 2.04" fill="none" stroke="#285680" stroke-linecap="round" stroke-linejoin="round" stroke-width="1.03"/><path d="m83.86 566.39c-2.67-1.25-3.25-1.31-9.54-5.94-.64-.47-.08 3.24-.82 3.54-3.42 1.38-.79 2.13-.19 5.77.22 1.35.78 2.72.42 4-.11.38.3.73.69.74a2.34 2.34 0 0 0 1.09-.38c3.54-1.82 8.08-1.39 11.9-.25.5.16 2.35-3.92 2-4.64-.68-1.23-4.82-2.51-5.55-2.84z" fill="#313438" fill-rule="evenodd"/><path d="m57 597.09c.2-2.82-.33-6.58 1.39-9a12.92 12.92 0 0 1 3.34-3 84.67 84.67 0 0 1 11.19-6.73 6.37 6.37 0 0 0 3.08-2.36 6.81 6.81 0 0 0 .36-3.76 26.37 26.37 0 0 1 1.64-11.18l-5.22-1.88a7.59 7.59 0 0 1 -2.15-1 18 18 0 0 1 -2.19-2.49 7 7 0 0 0 -5.32-2.18 3.26 3.26 0 0 0 -2 .66 4.34 4.34 0 0 0 -1.12 2.25q-5.28 20-10.37 40a1 1 0 0 0 0 .67 1 1 0 0 0 .45.41l5.36 3.13c.7.41 1.59.82 2.28.39 1.45-.91-.14-3-.74-3.88" fill="#4d95e2" fill-rule="evenodd"/><path d="m73.39 578.2c1.55-.81 2.71-1.7 2.87-2.59.54-2.94-1.12-6.65 1.79-14.53l-3.73-1.38a27.66 27.66 0 0 0 -1.32 3.07c-2.31 6.27-2 12.4.43 15.43" fill="#16538c" fill-rule="evenodd"/><path d="m69.09 556.27c-1.27-1.64-3.75-3.57-8-2.38l-1.57 4.11-.43 1.16a6.3 6.3 0 0 0 1.5.79 6.69 6.69 0 0 0 8.5-3.72" fill="#3965af" fill-rule="evenodd"/><path d="m58 574.23 1.74-4.72a1.67 1.67 0 1 1 3.14 1.16l-1.74 4.72a1.67 1.67 0 0 1 -3.14-1.16" fill="#fff" fill-rule="evenodd"/><path d="m73.39 578.2c-2.44-3-2.74-9.16-.43-15.43a27.66 27.66 0 0 1 1.36-3.07l-2.89-1.06a27.31 27.31 0 0 0 -2.2 4.54c-2.56 6.94-1.91 13.73 1.3 16.29z" fill="#3965af" fill-rule="evenodd"/><path d="m57.71 601c-.69.75-7.84-3.62-8.09-3.93l9.9-39 1.53-4.15c-1-1.58-2-1.74-2.86-1.5a2.63 2.63 0 0 0 -1.66 1.58l-12.71 42.88a25.06 25.06 0 0 0 8.72 6.83l.42.2c1 .49 4.67-2.66 4.67-2.66" fill="#d7d8da" fill-rule="evenodd"/><circle cx="64.94" cy="579.82" fill="#fff" r="1.15"/><circle cx="61.31" cy="582.41" fill="#fff" r="1.15"/><path d="m66.15 582.45-1.21-2.63" fill="none" stroke="#285680" stroke-linecap="round" stroke-linejoin="round" stroke-width="1.03"/><path d="m62.52 585.04-1.21-2.63" fill="none" stroke="#285680" stroke-linecap="round" stroke-linejoin="round" stroke-width="1.03"/><path d="m208.37 421.48c.29 5.24.44 10.49.64 15.73l.37 15.74c.21 10.49.24 21 .16 31.49s-.28 21-.77 31.48c-.1 2.62-.25 5.25-.39 7.87s-.27 5.24-.47 7.86l-.61 7.85q-.36 3.91-.78 7.83.16-3.93.36-7.86l.27-7.86c.12-2.62.17-5.24.24-7.86s.15-5.24.18-7.87q.3-15.72.41-31.45z" fill="#9ea6af"/><path d="m194.46 425.82a22.14 22.14 0 0 1 -.41 8.46 34.3 34.3 0 0 1 -2.91 8 37.24 37.24 0 0 1 -4.8 7 38.61 38.61 0 0 1 -3 3c-1.06.94-2.17 1.81-3.3 2.64.81-1.16 1.72-2.21 2.55-3.32l1.23-1.68.62-.82.58-.86c.37-.57.76-1.14 1.15-1.7s.72-1.16 1.07-1.74c.76-1.14 1.36-2.37 2-3.55a57.76 57.76 0 0 0 3.19-7.51 44.72 44.72 0 0 0 2.03-7.92z" fill="#9ea6af"/><path d="m88.68 564.8-3.44 12.58" fill="none" stroke="#bbbfc4" stroke-miterlimit="10" stroke-width="8.23"/><path d="m271.83 424.4a2.77 2.77 0 0 0 -.77 1.47c0 .48.36.76.83.91a3.24 3.24 0 0 0 1.49.08 8.58 8.58 0 0 0 1.58-.46 6.67 6.67 0 0 1 4-.53 4.85 4.85 0 0 1 3.15 3.06 4.08 4.08 0 0 1 .19 1.2 4.2 4.2 0 0 1 -.19 1.16c-.22.7-.51 1.26-.69 1.73a1.6 1.6 0 0 0 -.17 1.12 2 2 0 0 0 .24.48.86.86 0 0 0 .36.29 3.19 3.19 0 0 0 1.43.08c.57 0 1.19-.14 1.85-.14a2.88 2.88 0 0 1 1.94.63 1.46 1.46 0 0 1 .43 1 .89.89 0 0 1 -.42.84.93.93 0 0 0 -.36-1.35 2.34 2.34 0 0 0 -1.51-.08c-.53.11-1.08.3-1.69.47a4.15 4.15 0 0 1 -2.14.12 2.41 2.41 0 0 1 -1.14-.64 3.19 3.19 0 0 1 -.69-1.05 3.45 3.45 0 0 1 0-2.38c.22-.67.48-1.17.6-1.63a1.79 1.79 0 0 0 0-1.17 2.92 2.92 0 0 0 -1.76-1.84 5.69 5.69 0 0 0 -3 .21 8.27 8.27 0 0 1 -1.94.26 4.24 4.24 0 0 1 -2-.52 2.21 2.21 0 0 1 -.8-.78 1.38 1.38 0 0 1 -.14-1.13 2.6 2.6 0 0 1 1.32-1.41z" fill="#88929e"/><path d="m165.18 234.74s29.68 7.45 29.29 63.71c-.29 43.73-11.26 77.53-16.13 90.42a80.43 80.43 0 0 0 -5.12 22.78c-.56 8 0 17.11 4.2 23.06 0 0-15.92 2.36-22.31-7.81a4.75 4.75 0 0 0 -2.35-2 5.08 5.08 0 0 0 -3.76.1 20 20 0 0 1 -5.55 1.55c-4.17.4-9.86-.57-10.3-8.74-.84-15.43 22.91-59.6 24.34-63.44.77-2.08-.16-8.45-1.55-15.3a149.4 149.4 0 0 0 -10.28-31.79c-9.66-21.5-25.66-68.89 19.52-72.54z" fill="#36b5a0"/><path d="m363.67 370.78c-.26-.11-.51-.15-.72-.23-2.5-1-4.86-1.67-7.18-2.4s-4.84-1.44-7.14-1.92a20.46 20.46 0 0 0 -5.55-.64c-2.2.41-3.08 6-2.23 12.65s3.93 11.7 6.6 11.2a20 20 0 0 0 5.73-2.94 45 45 0 0 0 11.29-11.41c.13-.19.31-.38.46-.63a2.27 2.27 0 0 0 0-2.07 2.37 2.37 0 0 0 -1.26-1.61z" fill="#ffcca9"/><path d="m325.92 380.67-5.55-1.67c-18.9-6.13-38-12.68-56.42-20.37a282.56 282.56 0 0 1 -28.38-13.53 107.28 107.28 0 0 1 -12.57-8.24 44.93 44.93 0 0 1 -5.1-4.53c-.37-.34-.8-.87-1.21-1.33l-1.25-1.43c-.83-.95-1.67-1.87-2.48-2.85-5.38-6.5-10.42-13.66-15.36-20.93s-9.72-14.79-14.47-22.32c-12.36-19.23-25.53-33.17-30.69-30.33s-.06 21.93 12.75 41.86c5 7.7 10.36 15.27 16 22.62a249.69 249.69 0 0 0 18.2 21.38c1 1 2.08 2 3.12 3l1.56 1.52c.54.5 1 1 1.67 1.53 1.25 1 2.48 2.17 3.75 3s2.53 1.84 3.81 2.61a114.77 114.77 0 0 0 15.42 8.11 258.21 258.21 0 0 0 31.26 11 521.24 521.24 0 0 0 59.4 13.21c1.64.26 3.75.65 5.77.95 3.45.52 6.66.76 6.86-.21s-2.78-1.99-6.09-3.05z" fill="#ffcca9"/><path d="m346.83 358.45a6.4 6.4 0 0 1 -.59.58 61.18 61.18 0 0 1 -7.29 5c-2.72 1.63-5.49 3.22-8.27 4.84-2.29 1.34-4.62 2.66-6.86 4.12-2.83 1.93-4.17 4.95-3 6.83s4.6 1.84 7.52-.15a78 78 0 0 0 6.38-5.19 96.9 96.9 0 0 0 7.08-7 40.06 40.06 0 0 0 5.67-7.5 4.82 4.82 0 0 0 .41-.85c.22-.52.33-1 0-1.19s-.7.17-1.05.51z" fill="#ffcca9"/><path d="m314.84 381.18c.3.22.64.38.89.54a53.71 53.71 0 0 0 9.76 4.83 52.36 52.36 0 0 0 11.31 3 33.2 33.2 0 0 0 10 .17 6.34 6.34 0 0 0 4.43-4.83 15 15 0 0 0 -.61-8.78 23 23 0 0 0 -4.34-7.64c-1.6-1.77-3.24-2.8-4.68-2.43a62.89 62.89 0 0 0 -6.95 2.84l-9.17 4.12c-3 1.33-6.11 2.56-9.3 4-.27.11-.6.2-.93.35a2.08 2.08 0 0 0 -1.25 1.82 1.94 1.94 0 0 0 .84 2.01z" fill="#ffcca9"/><path d="m340.82 373.08a15 15 0 0 1 3.58-1.9 24.26 24.26 0 0 1 3.91-1.13 26.35 26.35 0 0 1 4-.48h2s1.35.09 2 .17c-1.34.16-2.68.26-4 .44s-2.63.39-3.93.64-2.59.58-3.87.94a32.63 32.63 0 0 0 -3.69 1.32z" fill="#ec725b"/><path d="m344.59 384.35c1.14-.27 2.25-.59 3.36-.92s2.21-.68 3.29-1.08c2.17-.77 4.27-1.7 6.42-2.65a18.68 18.68 0 0 1 -2.94 1.94 23.78 23.78 0 0 1 -3.22 1.44 19.71 19.71 0 0 1 -6.91 1.27z" fill="#ec725b"/><path d="m346.36 378.63c1.19-.45 2.39-.85 3.58-1.27l3.58-1.22 3.59-1.19c1.2-.39 2.39-.81 3.61-1.17a36.31 36.31 0 0 1 -7 3.1c-1.21.4-2.42.77-3.66 1.06a31.71 31.71 0 0 1 -3.7.69z" fill="#ec725b"/><path d="m150.75 250.06s19.92-5.57 37 35.5a108.57 108.57 0 0 0 8.16 15.78c9.07 14.59 27.42 39.57 51.56 49.2l-5.21 13.88s-26.46-3.26-46.25-26.59-35.63-36.05-45.22-63.76c-.04 0-7.33-14.28-.04-24.01z" fill="#36b5a0"/><path d="m191.15 293a154.77 154.77 0 0 0 -7.92-18.27 88 88 0 0 0 -10.62-16.73 34.22 34.22 0 0 0 -7.22-6.6c-2.69-1.73-5.86-3-9-2.56l-1.18.15a9.3 9.3 0 0 0 -1.15.31 10.66 10.66 0 0 0 -1.13.37l-1.09.51a8.27 8.27 0 0 0 -3.58 2.91 9.43 9.43 0 0 0 -1.53 4.37 18 18 0 0 0 .17 4.8 42.51 42.51 0 0 0 2.76 9.4 90.19 90.19 0 0 0 4.25 8.94 198.56 198.56 0 0 0 10.43 16.92c3.66 5.48 7.66 10.88 11.66 16.14q3 4 6.13 7.86l3.14 3.88 2.93 3.52c.26.29-.06 0-.16-.16l-.41-.46-.83-.93-1.65-1.87-3.26-3.78q-3.24-3.8-6.38-7.67c-4.15-5.19-8.18-10.5-12-15.94a177.32 177.32 0 0 1 -10.64-16.92 93.84 93.84 0 0 1 -4.37-9 44.49 44.49 0 0 1 -2.89-9.68 19.54 19.54 0 0 1 -.14-5.13 10.73 10.73 0 0 1 1.77-4.93 9.46 9.46 0 0 1 4.06-3.28l1.17-.55c.4-.17.83-.25 1.24-.39s.83-.27 1.26-.33l1.29-.16a15.13 15.13 0 0 1 9.75 2.8 33.26 33.26 0 0 1 7.36 6.89 88 88 0 0 1 10.43 17.06 156.45 156.45 0 0 1 7.35 18.51z" fill="#00775e"/><path d="m185.05 147s-10.67.79-11.39 23.23c-.65 20.18 3 49.93-8.23 67.71-8.26 13.05-16.05 9.45-28.79 9.67 0 0 26.45-13.29 19.15-60.48-6.4-41.29 11-41.94 24-40.68 1.87.22 3.65.44 5.26.55z" fill="#f4c233"/><path d="m130.13 242.8s17.15 9.33 27.91-4-1.8-78.76 13.57-88.4a10.81 10.81 0 0 1 7.09-3.4s-11.7-6.28-20.7-1.4c-1 .52-1.94 1.07-2.91 1.61-4 2.21-15.37 11.83-9.4 47.65 7.18 42.97-15.56 47.94-15.56 47.94z" fill="#f4c233"/><path d="m241 351a6.83 6.83 0 0 0 -1.13 1.56 9 9 0 0 0 -.66 1.68c-.2.57-.28 1.19-.44 1.81 0 .32-.12.64-.19 1a6.42 6.42 0 0 1 -.24 1 6.85 6.85 0 0 1 -.38-1 9.06 9.06 0 0 1 -.19-1 6.17 6.17 0 0 1 .22-2.13 4.65 4.65 0 0 1 1.09-1.9 2.93 2.93 0 0 1 1.92-1.02z" fill="#00775e"/><path d="m155.48 384.92a11.2 11.2 0 0 0 3.12 2 23.12 23.12 0 0 0 3.47 1.25c1.17.37 2.39.63 3.62.92.61.11 1.23.26 1.85.4s1.25.25 1.88.43c-.64.1-1.29.15-1.94.19s-1.29 0-1.94 0-1.28-.14-1.93-.23-1.28-.25-1.91-.45a13.48 13.48 0 0 1 -3.59-1.62 6.65 6.65 0 0 1 -2.63-2.89z" fill="#00775e"/><path d="m168.33 392.35a22.86 22.86 0 0 1 -.4 5.34 15.39 15.39 0 0 1 -1.91 5.1 7.93 7.93 0 0 1 -4.33 3.54 9.87 9.87 0 0 1 -5.6-.07 9 9 0 0 1 -4.77-3 8.08 8.08 0 0 1 -1.46-5.4 20.82 20.82 0 0 1 3.91-10 31.89 31.89 0 0 0 -2 4.9 18.5 18.5 0 0 0 -.91 5.1 7.3 7.3 0 0 0 1.41 4.63 8 8 0 0 0 4.16 2.49 8.81 8.81 0 0 0 4.9.15 7.14 7.14 0 0 0 3.86-2.94 16.1 16.1 0 0 0 2.13-4.69 27.48 27.48 0 0 0 1.01-5.15z" fill="#00775e"/><path d="m140.49 245a29.93 29.93 0 0 0 6.44-5.85 37.79 37.79 0 0 0 4.71-7.24 40.07 40.07 0 0 0 1.66-4c.23-.68.51-1.35.7-2l.57-2.09c.1-.36.21-.7.29-1.06l.2-1.07.43-2.14c.26-1.44.38-2.9.63-4.36v4.43l-.23 2.21a16.23 16.23 0 0 1 -.34 2.2 34.17 34.17 0 0 1 -2.77 8.49 30.38 30.38 0 0 1 -5.11 7.34 22.12 22.12 0 0 1 -7.18 5.14z" fill="#f3ac2d"/><path d="m175.23 146.45a23.12 23.12 0 0 0 -6 1.52 22.38 22.38 0 0 0 -5.35 3 22.64 22.64 0 0 0 -7.24 9.58 30.32 30.32 0 0 0 -1.75 5.85c-.24 1-.34 2-.51 3s-.2 2-.29 3.07-.12 2.06-.12 3.1 0 2.07.05 3.1.07 2.08.14 3.11.18 2.07.24 3.12c-.2-1-.4-2.05-.57-3.08s-.29-2.07-.43-3.11a62.43 62.43 0 0 1 -.3-6.28 34.17 34.17 0 0 1 2.36-12.4 21.87 21.87 0 0 1 7.85-9.89 21.16 21.16 0 0 1 11.92-3.69z" fill="#f3ac2d"/><path d="m159.24 174.29a62 62 0 0 0 .26 7.21q.3 3.58.91 7.13c.43 2.35.92 4.7 1.52 7a52 52 0 0 1 1.6 7.11 53.06 53.06 0 0 1 0 14.57 40.41 40.41 0 0 1 -1.65 7.1 15.29 15.29 0 0 1 -3.7 6.21 16 16 0 0 0 3.1-6.4 39.87 39.87 0 0 0 1.27-7 61.9 61.9 0 0 0 -.25-14.27c-.16-1.18-.37-2.35-.63-3.5l-.88-3.5a69.86 69.86 0 0 1 -1.32-7.16 58 58 0 0 1 -.23-14.5z" fill="#f3ac2d"/><path d="m163.11 185a29 29 0 0 1 -1.14-5.39 34.91 34.91 0 0 1 -.3-5.51 26.26 26.26 0 0 1 .66-5.51 13.73 13.73 0 0 1 2.22-5.07 24.39 24.39 0 0 0 -1.23 5.25 47.77 47.77 0 0 0 -.38 5.36c-.06 1.79 0 3.6 0 5.41z" fill="#f3ac2d"/></svg>